<svg xmlns="http://www.w3.org/2000/svg" viewBox="15.5 15.5 224.5 224.5"><defs><radialGradient cy="0" cx=".5" id="c"><stop stop-color="#f06b59"/><stop offset="1" stop-color="#df2227"/></radialGradient><radialGradient r=".76" cy=".3" cx=".65" id="d"><stop offset=".65" stop-color="#4cb749"/><stop offset="1" stop-color="#388b41"/></radialGradient><radialGradient r=".8" cy=".25" cx=".36" id="e"><stop offset=".6" stop-color="#FCD209"/><stop offset=".7" stop-color="#f7c616"/><stop offset="1" stop-color="#bc821e"/></radialGradient><radialGradient r="1" cy="0" cx=".5" spreadMethod="pad" id="a"><stop offset=".1" stop-color="#7FB3DF"/><stop offset=".9" stop-color="#0F5B94"/></radialGradient><radialGradient id="b" r="1" cy="0" cx=".5"><stop offset="0" stop-color="#F6F0EE"/><stop offset="1" stop-color="#ddd"/></radialGradient></defs><path d="M198 148a70 70 0 0 0-140 0h20a50 50 0 0 1 100 0" fill-opacity=".1"/><circle r="45" cx="127.5" cy="127.6" fill="url(#a)" stroke="url(#b)" stroke-width="9"/><path d="M228 78A112 112 0 0 0 35 65l45 78a50 50 0 0 1 47-65" fill="url(#c)"/><path d="M35 65a112 112 0 0 0 84 174l47-80a50 50 0 0 1-86-16" fill="url(#d)"/><path d="M119 239A112 112 0 0 0 228 78H127a50 50 0 0 1 39 81" fill="url(#e)"/><path d="M35 65l45 78a50 50 0 0 1 2-34L37 62" opacity=".075"/><path d="M119 239l47-80a50 50 0 0 1-29 17l-20 63M228 78H127a50 50 0 0 1 39 19l64-16" opacity=".05"/></svg>