<svg width="151.19" height="151.19" xmlns="http://www.w3.org/2000/svg">

 <g>
  <title>background</title>
  <rect fill="none" id="canvas_background" height="153.19" width="153.19" y="-1" x="-1"/>
 </g>
 <g>
  <title>Layer 1</title>
  <g id="svg_1">
   <path id="svg_2" d="m87.8032,0.00011c37.4308,0 62.8648,25.43379 62.8648,62.86449l0,25.4624l-0.049,2.8139c-1.244,35.8861 -26.331,60.0511 -62.8158,60.0511l-24.9387,0c-37.4308,0 -62.8645,-24.616 -62.8645,-62.0467l0,-27.099c0,-36.313 23.9376,-60.56481 59.5439,-61.9807l3.3206,-0.06555l24.9387,0.00006z" stroke-linejoin="round" stroke-width="0.2" fill="#706CF5"/>
   <g id="svg_3">
    <path id="svg_4" d="m97.1696,108.671c-6.262,4.143 -13.7693,6.556 -21.8401,6.556c-15.5369,0 -28.9856,-8.941 -35.4819,-21.9577c-3.2811,-1.7293 -6.2879,-3.5345 -8.9743,-5.3814c5.3799,19.5001 23.2457,33.8201 44.4562,33.8201c12.5948,0 24.0103,-5.049 32.3325,-13.234c-3.25,0.271 -6.767,0.339 -10.4924,0.197z" stroke-linejoin="round" stroke-width="0.2" fill="#FFFFFF"/>
    <path id="svg_5" d="m36.5531,83.8217c-2.6663,-1.6332 -5.0863,-3.3124 -7.226,-5.0124c-7.9367,-6.3059 -12.0153,-12.8981 -10.4919,-18.4947c1.519,-5.5807 8.3417,-9.1918 18.3333,-10.6135c8.2965,-12.2028 22.2927,-20.2179 38.161,-20.2179c24.4542,0 44.4625,19.0355 46.0155,43.0974c7.934,6.3048 12.01,12.8956 10.487,18.4911c-1.527,5.61 -8.413,9.2293 -18.49,10.6353c-2.71,0.379 -5.651,0.597 -8.781,0.65c-10.2028,0.175 -22.4098,-1.398 -35.1598,-4.8681c-12.785,-3.48 -24.1322,-8.3282 -32.8481,-13.6672zm73.1229,11.5589c3.323,-5.7559 5.241,-12.4249 5.284,-19.5383l0.001,-0.2465c0,-21.8877 -17.7439,-39.6312 -39.6316,-39.6312c-14.5522,0 -27.2725,7.8432 -34.1642,19.533c-3.4691,5.8843 -5.4613,12.7433 -5.467,20.0671c8.2559,5.5252 20.7326,10.9734 35.165,14.9017c14.8971,4.0549 28.8188,5.6579 38.8128,4.9142zm7.92,-1.3191c3.975,-1.1667 6.537,-3.0117 7.219,-5.518c0.695,-2.5504 -0.637,-5.4973 -3.578,-8.5756l-0.061,0.6112c-0.51,4.747 -1.741,9.2783 -3.58,13.4824zm-84.1739,-37.7319l0.334,-0.7091c-4.6887,1.1538 -7.6819,3.1033 -8.4277,5.8434c-0.7379,2.7112 0.8131,5.8705 4.1534,9.1593c0.5419,-5.0537 1.9002,-9.8631 3.9403,-14.2936z" stroke-linejoin="round" stroke-width="0.2" fill="#FFFFFF"/>
   </g>
  </g>
 </g>
</svg>